<?xml version="1.0" encoding="utf-8"?>
<!-- Generator: Adobe Illustrator 15.1.0, SVG Export Plug-In . SVG Version: 6.00 Build 0)  -->
<!DOCTYPE svg PUBLIC "-//W3C//DTD SVG 1.1//EN" "http://www.w3.org/Graphics/SVG/1.1/DTD/svg11.dtd">
<svg version="1.1" id="Layer_1" xmlns="http://www.w3.org/2000/svg" xmlns:xlink="http://www.w3.org/1999/xlink" x="0px" y="0px"
	 width="289.984px" height="71.927px" viewBox="140.412 249.103 289.984 71.927"
	 enable-background="new 140.412 249.103 289.984 71.927" xml:space="preserve">
<g>
	<g>
		<path fill="#3B283C" d="M405.397,306.179c0-0.837,0.683-1.436,1.564-1.436c0.884,0,1.565,0.586,1.565,1.436
			c0,0.918-0.728,1.438-1.565,1.438C406.129,307.617,405.397,307.097,405.397,306.179z"/>
		<path fill="#3B283C" d="M268.071,294.902v-20.884h4.822v9l7.647-9h5.412l-7.823,9.326l8.352,11.558h-5.5l-5.912-8.409
			l-2.176,2.264v6.146H268.071z"/>
		<path fill="#3B283C" d="M287.52,273.43h4.705v15.969c0,1.182,0.501,1.769,1.498,1.769c0.236,0,0.496-0.032,0.783-0.104
			c0.283-0.065,0.544-0.168,0.778-0.308l0.617,3.53c-0.59,0.274-1.265,0.487-2.028,0.646c-0.767,0.158-1.481,0.231-2.146,0.231
			c-1.354,0-2.394-0.349-3.12-1.06c-0.725-0.701-1.087-1.723-1.087-3.055V273.43z"/>
		<path fill="#3B283C" d="M301.826,295.198c-1.588,0-2.789-0.495-3.603-1.485c-0.813-0.991-1.222-2.449-1.222-4.368v-9.883h4.709
			v8.852c0,0.943,0.183,1.663,0.557,2.161c0.374,0.503,0.9,0.751,1.587,0.751c0.627,0,1.236-0.168,1.827-0.499
			c0.586-0.333,1.105-0.91,1.554-1.734v-9.529h4.709v10.145c0,0.474,0.072,0.802,0.22,0.986c0.146,0.187,0.407,0.303,0.778,0.339
			v3.972c-0.452,0.097-0.83,0.162-1.146,0.192c-0.313,0.025-0.599,0.039-0.854,0.039c-1.688,0-2.644-0.651-2.882-1.968l-0.086-0.941
			c-0.704,1.022-1.585,1.771-2.636,2.249C304.292,294.956,303.121,295.198,301.826,295.198z"/>
		<path fill="#3B283C" d="M324.818,295.198c-1.176,0-2.204-0.256-3.085-0.754c-0.886-0.5-1.583-1.196-2.091-2.104v2.562h-4.09
			V273.43h4.708v8.561c0.508-0.885,1.188-1.572,2.043-2.072c0.854-0.5,1.856-0.75,3.014-0.75c0.982,0,1.883,0.214,2.71,0.632
			c0.819,0.424,1.526,0.997,2.112,1.721c0.588,0.726,1.049,1.583,1.386,2.576c0.331,0.99,0.497,2.042,0.497,3.157
			c0,1.12-0.178,2.167-0.54,3.136c-0.366,0.97-0.869,1.813-1.519,2.527c-0.646,0.718-1.409,1.273-2.291,1.676
			C326.787,294.994,325.837,295.198,324.818,295.198z M323.496,291.225c0.549,0,1.049-0.103,1.498-0.308
			c0.45-0.209,0.836-0.486,1.163-0.839c0.321-0.352,0.575-0.77,0.765-1.251c0.186-0.479,0.277-1.006,0.277-1.574
			c0-0.546-0.087-1.071-0.264-1.567c-0.178-0.506-0.416-0.939-0.721-1.313c-0.303-0.372-0.674-0.666-1.104-0.882
			c-0.435-0.215-0.894-0.322-1.385-0.322c-0.742,0-1.425,0.254-2.04,0.762c-0.621,0.512-1.097,1.151-1.428,1.914v3.232
			c0.313,0.665,0.769,1.19,1.366,1.576C322.227,291.035,322.847,291.225,323.496,291.225z"/>
		<path fill="#3B283C" d="M351.02,283.49c-1.135,0.02-2.164,0.208-3.088,0.562c-0.92,0.348-1.586,0.878-1.999,1.586v9.265h-4.706
			v-15.44h4.326v3.116c0.526-1.035,1.209-1.852,2.04-2.439c0.837-0.586,1.724-0.888,2.665-0.912c0.215,0,0.373,0,0.469,0
			c0.101,0,0.197,0.015,0.293,0.03V283.49z"/>
		<path fill="#3B283C" d="M360.213,295.198c-1.313,0-2.486-0.218-3.519-0.648c-1.03-0.429-1.895-1.018-2.601-1.747
			c-0.709-0.738-1.24-1.594-1.605-2.563c-0.358-0.973-0.542-1.981-0.542-3.046c0-1.057,0.184-2.071,0.542-3.043
			c0.365-0.973,0.896-1.822,1.605-2.555c0.706-0.738,1.569-1.323,2.601-1.767c1.031-0.44,2.204-0.662,3.519-0.662
			c1.313,0,2.478,0.222,3.5,0.662c1.017,0.443,1.881,1.028,2.587,1.767c0.707,0.732,1.245,1.583,1.619,2.555
			c0.372,0.972,0.559,1.986,0.559,3.043c0,1.063-0.181,2.073-0.547,3.046c-0.364,0.969-0.896,1.823-1.601,2.563
			c-0.707,0.729-1.577,1.318-2.605,1.747C362.696,294.98,361.526,295.198,360.213,295.198z M356.771,287.194
			c0,1.218,0.323,2.193,0.973,2.929c0.644,0.737,1.47,1.103,2.47,1.103c0.487,0,0.94-0.098,1.352-0.294s0.77-0.471,1.073-0.821
			c0.303-0.354,0.545-0.779,0.719-1.281c0.179-0.5,0.267-1.042,0.267-1.634c0-1.216-0.319-2.188-0.97-2.928
			c-0.646-0.73-1.461-1.098-2.439-1.098c-0.49,0-0.947,0.096-1.366,0.29c-0.424,0.197-0.784,0.472-1.09,0.826
			c-0.304,0.354-0.544,0.778-0.72,1.276C356.86,286.062,356.771,286.606,356.771,287.194z"/>
		<path fill="#3B283C" d="M377.253,295.198c-1.061,0-2.034-0.203-2.928-0.605c-0.893-0.401-1.659-0.965-2.307-1.687
			c-0.649-0.73-1.152-1.575-1.517-2.547s-0.543-2.036-0.543-3.192c0-1.114,0.165-2.166,0.497-3.148
			c0.334-0.979,0.804-1.827,1.412-2.543c0.606-0.71,1.325-1.279,2.161-1.688c0.835-0.415,1.751-0.619,2.752-0.619
			c1.074,0,2.054,0.254,2.925,0.765c0.872,0.508,1.544,1.196,2.016,2.06v-8.562h4.707v16.175c0,0.474,0.066,0.801,0.218,0.986
			c0.147,0.187,0.407,0.303,0.78,0.339v3.972c-0.433,0.097-0.804,0.162-1.116,0.192c-0.314,0.025-0.608,0.039-0.882,0.039
			c-0.827,0-1.489-0.169-2.001-0.512c-0.512-0.346-0.809-0.839-0.881-1.485l-0.091-0.796c-0.549,0.963-1.288,1.679-2.219,2.148
			C379.306,294.963,378.312,295.198,377.253,295.198z M378.518,291.225c0.648,0,1.269-0.188,1.865-0.57
			c0.6-0.386,1.057-0.911,1.371-1.576v-3.232c-0.298-0.786-0.771-1.426-1.431-1.928c-0.655-0.498-1.336-0.748-2.043-0.748
			c-0.51,0-0.973,0.111-1.395,0.336c-0.426,0.226-0.792,0.523-1.104,0.895c-0.314,0.378-0.556,0.808-0.722,1.297
			c-0.167,0.489-0.25,1.012-0.25,1.558c0,0.568,0.093,1.101,0.278,1.59c0.188,0.492,0.442,0.913,0.768,1.267
			c0.323,0.352,0.717,0.625,1.175,0.821C377.492,291.127,377.99,291.225,378.518,291.225z"/>
		<rect x="390.096" y="279.461" fill="#3B283C" width="4.708" height="15.44"/>
		<path fill="#3B283C" d="M397.145,287.166c0-1.059,0.188-2.074,0.561-3.043c0.372-0.971,0.912-1.825,1.615-2.56
			c0.705-0.736,1.576-1.318,2.604-1.751c1.027-0.431,2.2-0.646,3.514-0.646c1.784,0,3.283,0.38,4.499,1.133
			c1.217,0.756,2.126,1.74,2.738,2.959l-4.59,1.38c-0.606-0.982-1.499-1.471-2.677-1.471c-0.981,0-1.803,0.361-2.457,1.086
			c-0.655,0.725-0.984,1.697-0.984,2.911c0,0.608,0.085,1.161,0.266,1.661c0.176,0.502,0.422,0.929,0.735,1.281
			c0.313,0.352,0.679,0.625,1.103,0.821c0.42,0.196,0.871,0.294,1.339,0.294c0.586,0,1.125-0.141,1.614-0.424
			c0.488-0.288,0.856-0.654,1.091-1.104l4.586,1.411c-0.564,1.197-1.474,2.174-2.717,2.938c-1.249,0.771-2.762,1.151-4.546,1.151
			c-1.293,0-2.454-0.222-3.481-0.662c-1.03-0.441-1.906-1.032-2.618-1.765c-0.718-0.738-1.262-1.593-1.634-2.56
			C397.332,289.24,397.145,288.228,397.145,287.166z"/>
		<polygon fill="#3B283C" points="402.638,272.96 405.409,275.015 408.184,272.96 410.865,274.163 407.304,277.66 403.548,277.66 
			399.955,274.163 		"/>
		<path fill="#3B283C" d="M419.276,295.198c-1.584,0-2.787-0.495-3.6-1.485c-0.816-0.991-1.224-2.449-1.224-4.368v-9.883h4.708
			v8.852c0,0.943,0.184,1.663,0.558,2.161c0.372,0.503,0.901,0.751,1.589,0.751c0.628,0,1.231-0.168,1.823-0.499
			c0.585-0.333,1.105-0.91,1.558-1.734v-9.529h4.708v10.145c0,0.474,0.073,0.802,0.219,0.986c0.147,0.187,0.408,0.303,0.782,0.339
			v3.972c-0.454,0.097-0.834,0.162-1.148,0.192c-0.314,0.025-0.599,0.039-0.854,0.039c-1.688,0-2.646-0.651-2.881-1.968
			l-0.088-0.941c-0.705,1.022-1.588,1.771-2.635,2.249C421.743,294.956,420.571,295.198,419.276,295.198z"/>
		<path fill="#3B283C" d="M271.1,317.571c-0.445,0-0.855-0.068-1.241-0.217c-0.378-0.138-0.705-0.337-0.978-0.593
			c-0.27-0.259-0.489-0.559-0.646-0.903c-0.159-0.345-0.237-0.726-0.237-1.134c0-0.439,0.089-0.845,0.277-1.207
			c0.188-0.365,0.454-0.675,0.791-0.937c0.344-0.263,0.746-0.471,1.213-0.618c0.466-0.147,0.98-0.223,1.552-0.223
			c0.372,0,0.735,0.034,1.09,0.098c0.349,0.063,0.658,0.157,0.917,0.274v-0.404c0-1.03-0.595-1.551-1.787-1.551
			c-0.491,0-0.953,0.085-1.398,0.251c-0.442,0.16-0.906,0.408-1.397,0.739l-0.799-1.703c0.589-0.387,1.205-0.679,1.84-0.873
			c0.638-0.19,1.31-0.284,2.024-0.284c1.354,0,2.399,0.319,3.139,0.952c0.739,0.639,1.105,1.566,1.105,2.792v2.302
			c0,0.274,0.042,0.466,0.128,0.571c0.085,0.106,0.235,0.167,0.453,0.191v2.303c-0.239,0.056-0.454,0.096-0.649,0.113
			c-0.19,0.015-0.369,0.022-0.528,0.022c-0.509,0-0.896-0.099-1.158-0.299c-0.262-0.197-0.428-0.479-0.493-0.847l-0.053-0.406
			c-0.397,0.514-0.869,0.902-1.421,1.177C272.292,317.433,271.709,317.571,271.1,317.571z M271.897,315.61
			c0.296,0,0.583-0.05,0.864-0.151c0.272-0.104,0.507-0.236,0.689-0.409c0.259-0.203,0.389-0.417,0.389-0.646v-0.852
			c-0.238-0.096-0.492-0.161-0.773-0.219c-0.277-0.047-0.537-0.073-0.774-0.073c-0.5,0-0.913,0.109-1.237,0.339
			c-0.324,0.233-0.483,0.523-0.483,0.889c0,0.326,0.123,0.598,0.374,0.807C271.195,315.507,271.513,315.61,271.897,315.61z"/>
		<path fill="#3B283C" d="M288.172,317.571c-0.687,0-1.275-0.144-1.775-0.429c-0.498-0.283-0.888-0.683-1.158-1.189v5.077h-2.724
			v-12.573h2.364v1.447c0.333-0.513,0.742-0.909,1.237-1.188c0.492-0.291,1.084-0.429,1.766-0.429c0.599,0,1.151,0.113,1.662,0.353
			c0.501,0.238,0.938,0.565,1.307,0.981c0.37,0.416,0.659,0.904,0.872,1.466c0.208,0.562,0.314,1.173,0.314,1.818
			c0,0.67-0.099,1.283-0.289,1.854c-0.195,0.569-0.461,1.058-0.799,1.473c-0.344,0.416-0.756,0.741-1.23,0.98
			C289.241,317.45,288.727,317.571,288.172,317.571z M287.249,315.27c0.297,0,0.565-0.063,0.809-0.197
			c0.245-0.127,0.457-0.305,0.64-0.52c0.182-0.217,0.321-0.466,0.42-0.755c0.094-0.292,0.142-0.593,0.142-0.912
			c0-0.328-0.051-0.633-0.158-0.914c-0.112-0.279-0.258-0.514-0.445-0.722c-0.187-0.203-0.415-0.363-0.682-0.477
			c-0.266-0.113-0.554-0.173-0.857-0.173c-0.378,0-0.737,0.112-1.08,0.333c-0.351,0.221-0.613,0.523-0.796,0.896v1.839
			c0.183,0.452,0.455,0.834,0.825,1.14C286.434,315.113,286.83,315.27,287.249,315.27z"/>
		<path fill="#3B283C" d="M299.402,310.792c-0.656,0.007-1.255,0.111-1.788,0.319c-0.534,0.204-0.922,0.513-1.159,0.92v5.367h-2.723
			v-8.942h2.503v1.805c0.306-0.597,0.701-1.07,1.184-1.414c0.482-0.341,0.996-0.514,1.543-0.529c0.126,0,0.217,0,0.271,0
			c0.061,0,0.115,0.011,0.171,0.019L299.402,310.792L299.402,310.792z"/>
		<polygon fill="#3B283C" points="294.958,304.683 296.569,305.88 298.174,304.683 299.726,305.385 297.665,307.407 295.49,307.407 
			293.41,305.385 		"/>
		<path fill="#3B283C" d="M308.9,314.905c-0.085-0.105-0.129-0.297-0.129-0.571v-2.302c0-1.226-0.371-2.153-1.105-2.792
			c-0.739-0.633-1.782-0.952-3.136-0.952c-0.716,0-1.39,0.094-2.024,0.284c-0.635,0.194-1.252,0.486-1.844,0.873l0.803,1.703
			c0.485-0.331,0.954-0.579,1.396-0.738c0.44-0.166,0.907-0.252,1.396-0.252c1.193,0,1.789,0.521,1.789,1.551v0.404
			c-0.263-0.117-0.569-0.213-0.922-0.274c-0.351-0.063-0.714-0.098-1.086-0.098c-0.572,0-1.086,0.074-1.555,0.223
			c-0.465,0.147-0.868,0.355-1.21,0.618c-0.338,0.262-0.604,0.57-0.792,0.937c-0.188,0.362-0.276,0.768-0.276,1.207
			c0,0.408,0.076,0.789,0.236,1.134c0.156,0.346,0.371,0.646,0.646,0.903c0.271,0.256,0.597,0.455,0.976,0.593
			c0.385,0.147,0.796,0.217,1.236,0.217c0.613,0,1.196-0.139,1.748-0.41c0.551-0.273,1.023-0.663,1.422-1.177l0.053,0.406
			c0.064,0.367,0.229,0.648,0.493,0.847c0.261,0.2,0.648,0.299,1.157,0.299c0.16,0,0.335-0.009,0.529-0.022
			c0.193-0.019,0.41-0.059,0.647-0.113v-2.303C309.137,315.072,308.982,315.012,308.9,314.905z M306.047,314.403
			c0,0.229-0.13,0.442-0.394,0.646c-0.184,0.173-0.414,0.305-0.688,0.409c-0.28,0.103-0.566,0.151-0.862,0.151
			c-0.386,0-0.704-0.104-0.953-0.316c-0.251-0.209-0.377-0.479-0.377-0.807c0-0.364,0.162-0.654,0.486-0.889
			c0.323-0.229,0.736-0.339,1.234-0.339c0.236,0,0.497,0.026,0.776,0.073c0.277,0.058,0.536,0.123,0.774,0.219v0.852H306.047z"/>
		<polygon fill="#3B283C" points="305.318,307.595 303.44,307.082 304.4,304.683 307.066,304.683 		"/>
		<path fill="#3B283C" d="M316.629,316.925c-0.374,0.156-0.801,0.303-1.286,0.438c-0.481,0.142-0.965,0.208-1.457,0.208
			c-0.339,0-0.66-0.044-0.963-0.13c-0.299-0.087-0.563-0.219-0.788-0.411c-0.229-0.181-0.407-0.43-0.538-0.735
			c-0.131-0.311-0.196-0.681-0.196-1.111v-4.667h-1.143v-2.06h1.143v-2.847h2.727v2.847h1.823v2.06h-1.823v3.731
			c0,0.299,0.072,0.51,0.221,0.642c0.146,0.127,0.337,0.195,0.562,0.195c0.206,0,0.415-0.035,0.632-0.104
			c0.214-0.065,0.401-0.14,0.562-0.221L316.629,316.925z"/>
		<path fill="#3B283C" d="M322.091,317.571c-0.751,0-1.421-0.12-2.019-0.368c-0.595-0.24-1.104-0.574-1.521-0.993
			c-0.414-0.421-0.728-0.909-0.943-1.459c-0.216-0.551-0.325-1.126-0.325-1.73c0-0.646,0.108-1.257,0.325-1.828
			c0.217-0.576,0.527-1.076,0.94-1.509c0.402-0.43,0.907-0.771,1.507-1.023c0.591-0.246,1.273-0.371,2.034-0.371
			c0.76,0,1.436,0.125,2.024,0.371c0.595,0.253,1.091,0.589,1.5,1.017c0.41,0.424,0.721,0.918,0.93,1.474
			c0.211,0.557,0.313,1.14,0.313,1.758c0,0.154-0.004,0.313-0.015,0.464c-0.009,0.158-0.027,0.291-0.053,0.402h-6.608
			c0.044,0.604,0.268,1.057,0.655,1.369c0.393,0.313,0.837,0.469,1.339,0.469c0.396,0,0.779-0.093,1.149-0.285
			c0.368-0.196,0.617-0.457,0.742-0.787l2.314,0.646c-0.349,0.707-0.896,1.277-1.637,1.726
			C324.011,317.351,323.123,317.571,322.091,317.571z M323.98,312.086c-0.057-0.569-0.26-1.019-0.612-1.349
			c-0.352-0.328-0.788-0.489-1.312-0.489c-0.536,0-0.975,0.165-1.322,0.497c-0.347,0.338-0.544,0.781-0.604,1.341H323.98
			L323.98,312.086z"/>
		<path fill="#3B283C" d="M328.387,304.964h2.723v9.251c0,0.68,0.291,1.021,0.87,1.021c0.136,0,0.288-0.019,0.454-0.06
			c0.16-0.037,0.313-0.104,0.447-0.176l0.36,2.038c-0.34,0.163-0.731,0.285-1.178,0.378c-0.443,0.091-0.854,0.136-1.242,0.136
			c-0.782,0-1.386-0.202-1.807-0.611c-0.42-0.408-0.629-1.002-0.629-1.771L328.387,304.964L328.387,304.964z"/>
		<path fill="#3B283C" d="M337.638,315.306l6.301-7.55h-6.063v-2.452h9.283v2.095l-5.996,7.547h6.063v2.454h-9.588V315.306z"/>
		<path fill="#3B283C" d="M356.535,308.847c-0.033-0.043-0.152-0.129-0.357-0.257c-0.205-0.127-0.458-0.255-0.768-0.388
			c-0.305-0.137-0.641-0.26-1.006-0.361c-0.363-0.102-0.723-0.155-1.091-0.155c-0.995,0-1.5,0.343-1.5,1.008
			c0,0.201,0.054,0.374,0.165,0.511c0.108,0.14,0.265,0.261,0.476,0.368c0.209,0.108,0.475,0.208,0.792,0.3
			c0.318,0.087,0.687,0.188,1.104,0.3c0.581,0.165,1.106,0.338,1.57,0.522c0.468,0.192,0.86,0.418,1.186,0.698
			c0.323,0.281,0.571,0.616,0.75,1.019c0.177,0.394,0.264,0.868,0.264,1.431c0,0.684-0.127,1.256-0.383,1.729
			c-0.255,0.466-0.592,0.853-1.011,1.139c-0.42,0.292-0.905,0.504-1.45,0.634c-0.547,0.13-1.106,0.193-1.688,0.193
			c-0.444,0-0.897-0.031-1.362-0.104c-0.468-0.069-0.918-0.167-1.363-0.296c-0.442-0.133-0.872-0.287-1.284-0.469
			c-0.417-0.179-0.799-0.394-1.15-0.633l1.228-2.438c0.043,0.063,0.192,0.167,0.442,0.324c0.249,0.16,0.559,0.32,0.928,0.479
			c0.368,0.155,0.782,0.301,1.235,0.426c0.452,0.127,0.915,0.184,1.382,0.184c0.989,0,1.479-0.295,1.479-0.898
			c0-0.229-0.072-0.419-0.219-0.562c-0.147-0.149-0.354-0.285-0.616-0.399c-0.259-0.123-0.568-0.235-0.928-0.334
			c-0.358-0.104-0.746-0.216-1.165-0.342c-0.559-0.167-1.042-0.354-1.448-0.555c-0.409-0.194-0.748-0.433-1.018-0.691
			c-0.265-0.259-0.462-0.563-0.592-0.898c-0.132-0.344-0.196-0.74-0.196-1.192c0-0.635,0.118-1.202,0.358-1.691
			c0.239-0.481,0.562-0.897,0.971-1.229c0.407-0.338,0.883-0.589,1.421-0.762c0.538-0.169,1.109-0.257,1.712-0.257
			c0.422,0,0.836,0.04,1.242,0.126c0.412,0.073,0.802,0.177,1.179,0.304c0.375,0.128,0.722,0.264,1.047,0.429
			c0.321,0.155,0.623,0.312,0.896,0.476L356.535,308.847z"/>
		<polygon fill="#3B283C" points="352.031,301.465 353.642,302.657 355.245,301.465 356.8,302.168 354.737,304.188 352.562,304.188 
			350.483,302.168 		"/>
		<polygon fill="#3B283C" points="366.393,301.55 367.997,302.744 369.608,301.55 371.159,302.252 369.098,304.277 366.921,304.277 
			364.841,302.252 		"/>
		<path fill="#3B283C" d="M371.153,312.906c0.307-0.172,0.581-0.379,0.825-0.63c0.242-0.239,0.452-0.514,0.622-0.817
			c0.174-0.311,0.301-0.637,0.39-0.981c0.093-0.348,0.139-0.711,0.139-1.085c0-0.501-0.101-0.992-0.296-1.479
			c-0.201-0.49-0.477-0.927-0.828-1.313c-0.354-0.389-0.768-0.704-1.25-0.941c-0.486-0.236-1.011-0.355-1.578-0.355h-5.452V317.4
			h2.795v-3.904h1.824l2.314,3.904h3.152L371.153,312.906z M369.928,310.593c-0.244,0.312-0.525,0.465-0.853,0.465h-2.558v-3.302
			h2.473c0.314,0,0.61,0.148,0.883,0.446s0.413,0.688,0.413,1.188C370.286,309.883,370.165,310.281,369.928,310.593z"/>
		<path fill="#3B283C" d="M379.223,317.571c-0.752,0-1.428-0.12-2.021-0.368c-0.591-0.24-1.1-0.574-1.517-0.993
			c-0.413-0.421-0.729-0.909-0.944-1.459c-0.217-0.55-0.326-1.126-0.326-1.73c0-0.646,0.109-1.257,0.326-1.828
			c0.216-0.576,0.527-1.076,0.94-1.509c0.406-0.43,0.907-0.771,1.505-1.023c0.593-0.246,1.273-0.371,2.037-0.371
			c0.761,0,1.437,0.125,2.023,0.371c0.595,0.253,1.093,0.589,1.499,1.017c0.413,0.424,0.721,0.918,0.931,1.474
			c0.209,0.557,0.313,1.14,0.313,1.758c0,0.154-0.005,0.313-0.015,0.464c-0.012,0.158-0.029,0.291-0.052,0.402h-6.609
			c0.046,0.604,0.267,1.057,0.653,1.369c0.394,0.313,0.838,0.469,1.339,0.469c0.397,0,0.782-0.093,1.148-0.285
			c0.367-0.196,0.617-0.457,0.744-0.787l2.314,0.646c-0.351,0.707-0.897,1.277-1.633,1.726
			C381.142,317.351,380.253,317.571,379.223,317.571z M381.111,312.086c-0.058-0.569-0.258-1.019-0.614-1.349
			c-0.351-0.328-0.786-0.489-1.313-0.489c-0.533,0-0.972,0.165-1.32,0.497c-0.345,0.338-0.544,0.781-0.604,1.341H381.111
			L381.111,312.086z"/>
		<path fill="#3B283C" d="M387.526,317.399l-3.166-8.942h2.813l1.962,6.766l1.979-6.766h2.537l-3.153,8.942H387.526z"/>
		<path fill="#3B283C" d="M403.503,317.399h-2.729v-5.024c0-0.59-0.11-1.018-0.334-1.287c-0.219-0.266-0.514-0.401-0.877-0.401
			c-0.19,0-0.385,0.041-0.578,0.121c-0.192,0.08-0.378,0.188-0.563,0.331c-0.182,0.143-0.344,0.309-0.483,0.502
			c-0.144,0.196-0.255,0.405-0.333,0.631v5.129h-2.728v-8.942h2.455v1.495c0.325-0.533,0.79-0.939,1.396-1.233
			c0.601-0.289,1.294-0.431,2.08-0.431c0.577,0,1.041,0.104,1.394,0.313c0.354,0.212,0.625,0.481,0.817,0.817
			c0.196,0.332,0.321,0.704,0.387,1.098c0.062,0.399,0.095,0.784,0.095,1.162L403.503,317.399L403.503,317.399z"/>
		<rect x="405.603" y="308.456" fill="#3B283C" width="2.726" height="8.942"/>
		<path fill="#3B283C" d="M409.968,312.916c0-0.606,0.105-1.199,0.32-1.762c0.22-0.563,0.529-1.057,0.943-1.479
			c0.403-0.428,0.905-0.764,1.504-1.018c0.593-0.245,1.275-0.37,2.037-0.37c1.034,0,1.902,0.219,2.606,0.649
			c0.701,0.439,1.23,1.01,1.582,1.718l-2.653,0.804c-0.355-0.571-0.874-0.856-1.554-0.856c-0.566,0-1.042,0.21-1.427,0.629
			c-0.378,0.422-0.564,0.985-0.564,1.687c0,0.356,0.05,0.677,0.148,0.964c0.104,0.291,0.244,0.541,0.429,0.743
			c0.183,0.205,0.396,0.362,0.637,0.474c0.247,0.121,0.507,0.173,0.777,0.173c0.343,0,0.653-0.082,0.938-0.252
			c0.282-0.157,0.495-0.373,0.626-0.635l2.663,0.818c-0.331,0.691-0.855,1.259-1.579,1.705c-0.721,0.443-1.595,0.664-2.629,0.664
			c-0.752,0-1.422-0.13-2.021-0.381c-0.598-0.259-1.101-0.596-1.518-1.025c-0.413-0.428-0.729-0.919-0.947-1.479
			C410.073,314.122,409.968,313.531,409.968,312.916z"/>
		<path fill="#3B283C" d="M424.649,317.571c-0.753,0-1.424-0.12-2.017-0.368c-0.597-0.24-1.106-0.574-1.518-0.993
			c-0.415-0.421-0.732-0.909-0.946-1.459c-0.216-0.55-0.321-1.126-0.321-1.73c0-0.646,0.105-1.257,0.321-1.828
			c0.214-0.576,0.526-1.076,0.937-1.509c0.408-0.43,0.911-0.771,1.506-1.023c0.599-0.246,1.277-0.371,2.038-0.371
			c0.758,0,1.438,0.125,2.026,0.371c0.59,0.253,1.089,0.589,1.498,1.017c0.407,0.424,0.723,0.918,0.93,1.474
			c0.213,0.557,0.315,1.14,0.315,1.758c0,0.154-0.006,0.313-0.02,0.464c-0.011,0.158-0.025,0.291-0.051,0.402h-6.608
			c0.045,0.604,0.27,1.057,0.656,1.369c0.392,0.313,0.835,0.469,1.337,0.469c0.396,0,0.779-0.093,1.148-0.285
			c0.367-0.196,0.614-0.457,0.74-0.787l2.319,0.646c-0.353,0.707-0.899,1.277-1.634,1.726
			C426.568,317.351,425.682,317.571,424.649,317.571z M426.541,312.086c-0.057-0.569-0.259-1.019-0.614-1.349
			c-0.355-0.328-0.787-0.489-1.315-0.489c-0.531,0-0.974,0.165-1.316,0.497c-0.347,0.338-0.55,0.781-0.605,1.341H426.541
			L426.541,312.086z"/>
		<path fill="#3B283C" d="M389.775,275.297c0-1.427,1.172-2.449,2.675-2.449c1.499,0,2.673,0.995,2.673,2.449
			c0,1.577-1.247,2.473-2.673,2.473C391.021,277.771,389.775,276.874,389.775,275.297z"/>
		<path fill="#3B283C" d="M421.991,272.472c-1.784,0-3.436,1.19-3.436,3.121c0,1.913,1.649,3.087,3.436,3.087
			c1.755,0,3.413-1.174,3.413-3.087C425.405,273.663,423.746,272.472,421.991,272.472z M421.991,276.722
			c-0.639,0-1.198-0.436-1.198-1.146c0-0.711,0.561-1.146,1.198-1.146c0.61,0,1.172,0.438,1.172,1.146
			C423.163,276.286,422.603,276.722,421.991,276.722z"/>
	</g>
	<g>
		<g>
			<path fill="#3B283C" d="M235.445,320.655h-29.921c-0.968,0-1.75-0.784-1.75-1.75c0-0.965,0.782-1.75,1.75-1.75h29.018v-42.092
				c0-0.965,0.781-1.75,1.749-1.75h4.12l-20.082-20.709h-53.95l-20.083,20.709h4.123c0.966,0,1.749,0.785,1.749,1.75v42.092h29.015
				c0.967,0,1.75,0.785,1.75,1.75c0,0.966-0.783,1.75-1.75,1.75h-29.92c-1.43,0-2.593-1.164-2.593-2.596v-41.246h-6.506
				c-0.704,0-1.338-0.422-1.612-1.067c-0.274-0.646-0.134-1.396,0.354-1.9l23.478-24.21c0.33-0.34,0.783-0.532,1.256-0.532h55.432
				c0.474,0,0.927,0.194,1.257,0.532l23.474,24.21c0.49,0.506,0.629,1.254,0.354,1.9c-0.273,0.646-0.907,1.067-1.61,1.067h-6.503
				v41.246C238.04,319.49,236.876,320.655,235.445,320.655z"/>
		</g>
		<g>
			<path fill="#E2333E" d="M193.108,320.392c-0.61,0-1.179-0.381-1.61-0.811c-1.137-1.134-4.029-3.22-7.504-5.617
				c-8.875-6.117-22.282-15.367-23.572-28.808c-0.894-9.323,3.017-21.209,13.713-25.272c3.517-1.336,8.949-2.637,15.479,1.49
				c2.682,1.692,4.592,4.108,5.718,7.225c2.138-0.117,4.169,0.197,5.902,0.965c4.207,1.863,6.397,5.375,6.162,9.887
				c-0.247,4.859-3.325,9.941-7.417,12.845c2.313,5.276,3.841,7.68,7.29,6.969c0.933-0.191,1.854,0.41,2.046,1.35
				c0.194,0.938-0.41,1.855-1.347,2.045c-6.36,1.31-9.01-4.047-11.044-8.698c-0.212,0.08-0.421,0.157-0.635,0.225
				c-1.274,0.412-2.995,0.484-4.737,0.221c-1.019,1.966-2.147,3.675-3.329,4.912c-4.548,4.681-8.288,3.438-9.686,2.691
				c-3.631-1.945-5.221-7.205-3.955-13.086c1.444-6.711,6.729-14.438,12.028-17.592c1.665-0.994,3.442-1.726,5.218-2.185
				c-0.877-2.074-2.229-3.68-4.063-4.842c-5.165-3.262-9.34-2.344-12.402-1.182c-9,3.42-12.264,13.649-11.493,21.705
				c1.134,11.831,13.244,20.184,22.089,26.284c2.788,1.922,5.066,3.496,6.664,4.931c0.281,0.258,0.604,0.274,0.939,0
				c1.584-1.435,3.843-3.009,6.593-4.935c8.743-6.104,20.71-14.465,22.169-26.33c1.011-8.205-2.614-18.278-11.5-21.655
				c-3.091-1.175-9.847-1.646-12.206,2.512c-0.47,0.836-1.529,1.129-2.362,0.656c-0.831-0.474-1.124-1.531-0.652-2.363
				c3.626-6.4,12.646-5.488,16.45-4.043c10.554,4.01,14.885,15.771,13.713,25.32c-1.649,13.396-14.877,22.631-23.625,28.743
				c-3.438,2.404-6.227,4.5-7.493,5.729C194.213,320.097,193.716,320.392,193.108,320.392z M192.779,272.481
				c-1.491,0.379-2.996,0.992-4.393,1.824c-4.497,2.678-9.169,9.563-10.413,15.346c-1.03,4.779,0.328,8.297,2.201,9.3
				c1.493,0.801,3.521,0.057,5.555-2.039c0.806-0.841,1.623-2.05,2.409-3.482c-0.996-0.441-1.886-1.016-2.557-1.715
				c-1.402-1.457-1.793-3.312-1.096-5.219c0.645-1.761,2.093-2.964,4.067-3.39c1.117-0.239,2.334-0.209,3.5,0.045
				c0.623-2.477,1.002-4.879,1.015-6.86C193.067,274.915,192.971,273.649,192.779,272.481z M193.08,291.087
				c0.819,0.045,1.575-0.019,2.141-0.201c0.099-0.029,0.194-0.064,0.291-0.098c-0.446-0.929-0.9-1.765-1.397-2.441
				C193.792,289.274,193.447,290.194,193.08,291.087z M190.162,286.406c-0.304,0-0.602,0.027-0.878,0.087
				c-1.203,0.258-1.461,0.965-1.542,1.194c-0.242,0.656-0.146,1.127,0.337,1.623c0.377,0.396,0.924,0.73,1.559,1
				c0.524-1.217,1.01-2.51,1.441-3.824C190.773,286.435,190.464,286.406,190.162,286.406z M195.253,284.569
				c0.265,0.199,0.516,0.414,0.735,0.642c1.005,1.024,1.813,2.379,2.527,3.84c2.958-2.363,5.239-6.252,5.421-9.777
				c0.157-3.063-1.226-5.264-4.107-6.541c-1.05-0.463-2.29-0.692-3.621-0.692c0.216,1.325,0.323,2.748,0.323,4.264
				C196.519,278.595,196.048,281.526,195.253,284.569z"/>
		</g>
	</g>
</g>
</svg>
